name C:\Users\antoi\Documents\MyRepositories\upper-imu-dc\Results\main_tracking\Case_84\kinematics.mot
datacolumns 43
datarows 4
range 0.70000000 0.76000000
endheader 
time	clav_prot	clav_elev	scapula_abduction	scapula_elevation	scapula_upward_rot	scapula_winging	plane_elv	shoulder_elv	axial_rot	TrapeziusScapula_M/activation	TrapeziusScapula_S/activation	TrapeziusScapula_I/activation	TrapeziusClavicle_S/activation	SerratusAnterior_I/activation	SerratusAnterior_M/activation	SerratusAnterior_S/activation	Rhomboideus_S/activation	Rhomboideus_I/activation	LevatorScapulae/activation	Coracobrachialis/activation	DeltoideusClavicle_A/activation	DeltoideusScapula_P/activation	DeltoideusScapula_M/activation	LatissimusDorsi_S/activation	LatissimusDorsi_M/activation	LatissimusDorsi_I/activation	PectoralisMajorClavicle_S/activation	PectoralisMajorThorax_I/activation	PectoralisMajorThorax_M/activation	TeresMajor/activation	Infraspinatus_I/activation	Infraspinatus_S/activation	PectoralisMinor/activation	TeresMinor/activation	Subscapularis_S/activation	Subscapularis_M/activation	Subscapularis_I/activation	Supraspinatus_P/activation	Supraspinatus_A/activation	TRIlong/activation	BIC_long/activation	BIC_brevis/activation	
          0.70000000	        -21.78953405	         -3.73926139	        -13.87303228	         -2.24155877	          8.23584341	          6.41241684	         -3.30062271	         17.09671733	         22.21444400	          0.01000000	          0.01000000	          0.01000000	          0.01304622	          0.01000000	          0.03202201	          0.01000000	          0.01000000	          0.01856546	          0.06165975	          0.01000000	          0.01000000	          0.01000000	          0.01000000	          0.01000000	          0.01000000	          0.01000000	          0.01002544	          0.01000000	          0.01002461	          0.01000000	          0.01622700	          0.01020590	          0.01000000	          0.01000000	          0.01000000	          0.01000000	          0.01000000	          0.01000000	          0.01000000	          0.01065888	          0.01000000	          0.01000000	
          0.72000000	        -21.62179620	         -4.16663826	        -13.55983909	         -2.54314809	          8.15202524	          6.54011883	         -1.37016685	         17.80488338	         20.38251477	          0.02147351	          0.04033054	          0.02232012	          0.05007711	          0.06076858	          0.08042326	          0.03688257	          0.03505492	          0.02271544	          0.04624481	          0.03357562	          0.06084673	          0.01000000	          0.07026395	          0.01961062	          0.01544476	          0.02909383	          0.05269008	          0.02496768	          0.04754191	          0.01000000	          0.04117050	          0.03877027	          0.01764977	          0.03055002	          0.03659894	          0.03633718	          0.03114348	          0.04162870	          0.05405039	          0.01000000	          0.05302345	          0.04329224	
          0.74000000	        -21.46344596	         -4.55076276	        -13.25047423	         -2.79798422	          8.03127885	          6.66735015	          0.59111776	         18.58681466	         18.55359873	          0.02472967	          0.04704572	          0.01784861	          0.04932226	          0.06683608	          0.07616324	          0.03692145	          0.03415832	          0.01880200	          0.04129319	          0.04407924	          0.07229284	          0.01000000	          0.06712496	          0.02303068	          0.01992120	          0.03250135	          0.06342345	          0.03077168	          0.05921552	          0.01000000	          0.03792448	          0.04206039	          0.02008211	          0.03532693	          0.03757848	          0.03316697	          0.02782761	          0.04363028	          0.05583608	          0.01000000	          0.06333891	          0.05260911	
          0.76000000	        -21.30499960	         -4.93176215	        -12.92463759	         -3.06128781	          7.94791415	          6.78725220	          2.55365952	         19.39863609	         16.72662675	          0.02647989	          0.04665967	          0.02190404	          0.05083969	          0.06736818	          0.07882475	          0.03769662	          0.03527972	          0.01863891	          0.04200695	          0.04646643	          0.07853711	          0.01000000	          0.06750129	          0.02325940	          0.01957989	          0.03366623	          0.06647103	          0.03017017	          0.06006768	          0.01000000	          0.04085987	          0.04271851	          0.01982877	          0.03482876	          0.03852245	          0.03571508	          0.02944961	          0.04632488	          0.05971707	          0.01000000	          0.06481074	          0.05645486	
